<svg width="97" height="100" viewBox="0 0 97 100" fill="none" xmlns="http://www.w3.org/2000/svg">
<g clip-path="url(#clip0_9_43)">
<rect width="96.3" height="99.85" fill="#FBFCFC"/>
<path d="M36.85 0.930034C41.07 0.550034 44.47 2.30003 47.44 5.05003C55.54 12.53 55.34 27.7 45 34.17C43.7922 34.9046 42.6542 35.7482 41.6 36.69C40.5269 37.6391 39.7233 38.8546 39.2704 40.2136C38.8174 41.5727 38.7312 43.0272 39.0203 44.4303C39.3094 45.8334 39.9637 47.1353 40.9171 48.2046C41.8705 49.2738 43.0891 50.0725 44.45 50.52C47.5383 51.5774 50.9169 51.3909 53.87 50C57.31 48.52 60.12 46 63.3 44.14C69.61 40.34 76.24 38.85 83.43 41.21C85.3805 41.9396 87.2477 42.8749 89 44C88.7119 41.0365 87.9769 38.1336 86.82 35.39C81 21.43 70.7 12.52 56 8.86003C55.7406 8.83368 55.4904 8.75003 55.2673 8.61514C55.0442 8.48024 54.8538 8.29747 54.71 8.08003C53.1639 5.49169 51.0594 3.28124 48.55 1.61003C48.46 1.55003 48.41 1.42003 48.32 1.30003C80.88 1.87003 102.98 35.08 94.47 63.3C94.27 62.24 94.14 61.51 93.99 60.78C92.99 55.93 91.09 51.57 87.07 48.47C81 43.76 74.4 43.53 67.58 46.62C65.1629 47.8105 62.8657 49.2304 60.72 50.86C56.06 54.14 51.12 56.86 45.47 57.94C37.17 59.56 30.54 55.83 27.89 48.06C26.5702 44.0355 26.5702 39.6946 27.89 35.67C28.8434 32.5775 30.5039 29.7494 32.74 27.41L34 26.11C31.26 26.51 29.06 27.42 27.45 29.46C23.06 34.94 22 41.17 23.47 47.84C24.81 54.09 28.11 58.94 34.14 61.61C36.4259 62.7039 38.9689 63.1468 41.49 62.89C47.7429 62.2753 53.8074 60.4046 59.32 57.39C61.22 56.29 63.02 55 64.83 53.73C68.95 50.83 73.43 49.21 78.52 50.07C81.8473 50.6352 84.8209 52.4809 86.804 55.2116C88.7871 57.9424 89.6221 61.3412 89.13 64.68C88.9915 65.9536 88.689 67.204 88.23 68.4C87.75 69.52 87.23 70.64 86.69 71.96C88.4627 71.0965 89.9973 69.8126 91.16 68.22C91.42 67.86 91.64 67.47 91.89 67.11C92.14 66.75 92.22 66.42 92.68 66.58C93.14 66.74 93.15 67.18 93.09 67.58C92.9261 68.5379 92.644 69.4717 92.25 70.36C83.22 92.6 60.85 103 39.45 99C29.5081 97.3004 20.371 92.464 13.3752 85.1984C6.37948 77.9327 1.89227 68.6191 0.570013 58.62C-1.66999 42.94 2.69001 29.08 13.38 17.32C14.24 16.37 14.68 15.83 13.6 14.6C11.6 12.31 11.73 8.52003 13.6 6.68003C14.03 6.25003 14.31 6.00003 14.51 6.88003C15.3 10.29 17.64 12.12 20.93 12.76C24.7615 13.4978 28.7085 13.3818 32.49 12.42C34.7151 11.7908 36.7137 10.5382 38.25 8.81003C38.64 8.42003 39.03 7.81003 39.69 8.16003C40.35 8.51003 40.16 9.16003 40.1 9.69003C39.9409 10.9241 39.4847 12.1011 38.7705 13.12C38.0564 14.1389 37.1057 14.9694 36 15.54C33.6884 16.7597 31.1319 17.4433 28.52 17.54C24.78 17.92 21.18 18.59 18.21 21.17C16.7707 22.5152 15.5465 24.0734 14.58 25.79C20.68 22.64 27.32 23.01 33.64 21.79C35.5594 21.4788 37.4082 20.8287 39.1 19.87C40.3786 19.1605 41.4801 18.1707 42.3218 16.975C43.1636 15.7792 43.7238 14.4085 43.9604 12.9654C44.1971 11.5224 44.1041 10.0445 43.6884 8.64252C43.2727 7.24054 42.545 5.95083 41.56 4.87003C40.1946 3.32984 38.6072 2.0019 36.85 0.930034Z" fill="#0E202E"/>
<path d="M79.68 31.61C79.6858 31.7272 79.6466 31.8422 79.5703 31.9314C79.4941 32.0207 79.3867 32.0774 79.27 32.09C78.84 32.22 78.41 32.31 77.99 32.44C76.6731 32.7631 75.4718 33.4456 74.5201 34.4114C73.5684 35.3773 72.9037 36.5885 72.6 37.91C72.5 38.29 72.41 38.67 72.31 39.06C72.21 39.45 72.19 39.76 71.85 39.8C71.51 39.84 71.42 39.34 71.3 39.04C71.2048 38.7443 71.1247 38.4439 71.06 38.14C70.7916 36.6961 70.0932 35.3669 69.0565 34.3266C68.0198 33.2863 66.693 32.5834 65.25 32.31C64.83 32.21 64.06 32.31 64.06 31.74C64.06 31.17 64.85 31.22 65.31 31.02C65.3921 30.9953 65.4756 30.9753 65.56 30.96C66.984 30.691 68.2893 29.9866 69.296 28.9442C70.3026 27.9017 70.9609 26.5725 71.18 25.14C71.28 24.68 71.13 23.89 71.85 23.89C72.57 23.89 72.36 24.63 72.46 25.06C72.7227 26.5553 73.4395 27.9334 74.5131 29.007C75.5866 30.0805 76.9647 30.7973 78.46 31.06C78.91 31.13 79.45 31.12 79.68 31.61Z" fill="#101F2E"/>
<path d="M27.06 8.07001C25.2416 8.17821 23.4392 7.67482 21.94 6.64001C21.2877 6.17592 20.8034 5.51274 20.56 4.75002C20.3166 3.98731 20.3271 3.16622 20.59 2.41001C20.8079 1.68534 21.262 1.05441 21.8799 0.617668C22.4979 0.180929 23.2442 -0.036497 24 1.09272e-05C24.3956 -0.0404235 24.7949 0.0188781 25.1616 0.1725C25.5284 0.326122 25.8508 0.569169 26.0994 0.879446C26.348 1.18972 26.5149 1.55734 26.5849 1.94873C26.6549 2.34012 26.6257 2.7428 26.5 3.12001C26.28 3.99001 26.68 3.98001 27.28 3.98001C28.5641 3.96032 29.8135 3.5601 30.87 2.83001C31.4551 2.35367 32.1379 2.01223 32.87 1.83001C33.1811 1.71947 33.5182 1.70536 33.8374 1.78955C34.1566 1.87373 34.443 2.05228 34.6591 2.30185C34.8752 2.55142 35.0109 2.86038 35.0485 3.18834C35.0862 3.5163 35.0239 3.84798 34.87 4.14001C34.4257 5.3054 33.5528 6.25696 32.43 6.80001C30.7781 7.67566 28.9292 8.11293 27.06 8.07001Z" fill="#10202E"/>
<path d="M63.32 27.78C63.18 27.24 63.08 26.78 62.95 26.31C62.6844 25.1875 62.1069 24.1628 61.2842 23.3543C60.4615 22.5457 59.427 21.9861 58.3 21.74C57.95 21.66 57.39 21.65 57.4 21.14C57.41 20.63 57.93 20.75 58.25 20.67C59.5114 20.4016 60.6572 19.7453 61.5269 18.7931C62.3966 17.8409 62.9467 16.6405 63.1 15.36C63.1649 15.1153 63.2451 14.8748 63.34 14.64C63.87 14.76 63.79 15.18 63.87 15.5C64.0871 16.7228 64.6542 17.8565 65.5027 18.7634C66.3511 19.6704 67.4444 20.3119 68.65 20.61C69.04 20.71 69.65 20.66 69.65 21.19C69.65 21.72 69.06 21.65 68.65 21.75C67.3985 22.0474 66.2635 22.71 65.3893 23.6536C64.5151 24.5973 63.941 25.7794 63.74 27.05C63.6862 27.2599 63.6125 27.4641 63.52 27.66C63.52 27.66 63.51 27.69 63.32 27.78Z" fill="#10202F"/>
<path d="M22.66 64C25.1729 64.0653 27.645 64.6509 29.92 65.72C35.4868 68.2504 41.8188 68.5193 47.58 66.47C51.805 64.9583 56.3731 64.6808 60.75 65.67C66.3496 67.0112 71.2547 70.3774 74.52 75.12C75.52 76.47 76.29 77.96 77.23 79.35C77.82 80.21 77.65 80.79 76.92 81.5C75.21 83.16 75.25 83.19 73.92 81.28C72.1061 78.3997 69.8365 75.833 67.2 73.68C61.55 69.44 55.31 68.92 48.71 70.68C46.4829 71.388 44.2156 71.9624 41.92 72.4C38.2216 72.9061 34.4554 72.3765 31.04 70.87C28.1249 69.5206 24.9414 68.851 21.7297 68.9116C18.5181 68.9722 15.3621 69.7616 12.5 71.22C11.99 71.47 11.69 71.55 11.38 70.92C9.40002 66.94 9.00002 67.84 13 66C16.0365 64.6395 19.333 63.957 22.66 64Z" fill="#FBFCFC"/>
<path d="M22.4 73.68C24.813 73.7189 27.1935 74.2426 29.4 75.22C33.28 76.83 37.25 77.89 41.51 77.22C43.6724 76.7991 45.7988 76.2107 47.87 75.46C58.43 71.94 66 76.73 71 85.4C71.33 85.98 71.23 86.3 70.7 86.71C68.51 88.39 68.53 88.41 66.89 86.23C61.82 79.46 55.6 77.5 47.54 80.14C45.3527 80.9605 43.0877 81.5568 40.78 81.92C37.4615 82.3561 34.0868 81.9041 31 80.61C26.68 78.77 22.28 77.77 17.6 79C17.3902 79.0684 17.163 79.0608 16.9582 78.9785C16.7535 78.8963 16.5842 78.7446 16.48 78.55C15.95 77.79 15.39 77.05 14.81 76.33C14.23 75.61 14.37 75.33 15.19 75.01C17.4881 74.1165 19.9344 73.6652 22.4 73.68Z" fill="#FBFCFC"/>
<path d="M62.08 60.91C66.16 58.32 69.43 55.02 74.14 54.24C75.8383 53.9099 77.5969 54.1065 79.1803 54.8035C80.7638 55.5005 82.0965 56.6647 83 58.14C83.8092 59.4 84.2048 60.8811 84.1317 62.3767C84.0585 63.8723 83.5202 65.3078 82.5919 66.4827C81.6636 67.6577 80.3917 68.5135 78.9536 68.9307C77.5155 69.3479 75.983 69.3057 74.57 68.81C73.4568 68.5115 72.4221 67.974 71.5379 67.2348C70.6537 66.4956 69.9412 65.5726 69.45 64.53C69.2624 64.0743 68.9771 63.6654 68.6143 63.3319C68.2514 62.9984 67.8199 62.7486 67.35 62.6C65.629 61.9311 63.8691 61.3668 62.08 60.91Z" fill="#FBFCFC"/>
<path d="M21.05 83.18C23.6589 82.9944 26.2745 83.4332 28.68 84.46C30.7096 85.3309 32.8197 86.0008 34.98 86.46C38.4072 86.9311 41.8981 86.4896 45.1 85.18C48.31 84 51.55 83.05 55 83.69C56.7327 84.0461 58.3769 84.7443 59.8364 85.7436C61.2959 86.7429 62.5414 88.0234 63.5 89.51C63.65 89.71 63.88 89.91 63.74 90.21C63.49 90.71 60.74 91.34 60.26 90.99C58.5227 89.7062 56.5074 88.8497 54.3774 88.4901C52.2473 88.1304 50.0625 88.2777 48 88.92C46.3 89.38 44.64 89.98 43 90.48C38.7304 91.7714 34.1283 91.3778 30.14 89.38C26.8037 87.8027 23.7362 85.7105 21.05 83.18Z" fill="#FBFCFC"/>
<path d="M40.37 53.7C35.74 52.87 32.97 49.98 31.73 45.55C30 39.42 32.41 32.86 38 28.48C39.28 27.48 40.63 26.56 42 25.6C44.7388 23.7056 46.8325 21.0187 48 17.9C48.08 17.67 48.11 17.37 48.45 17.31C48.88 17.42 48.74 17.79 48.76 18.06C48.9777 20.293 48.6195 22.5445 47.7197 24.5997C46.8199 26.6549 45.4084 28.4453 43.62 29.8C42.18 30.96 40.62 31.94 39.18 33.14C32.48 38.87 32.91 48.32 40.07 53.45L40.37 53.7Z" fill="#FAFCFC"/>
<path d="M19.09 29.21C16.029 32.1696 13.6592 35.7686 12.15 39.75C9.65755 46.1922 9.52295 53.3082 11.77 59.84C12.21 61.15 12.03 61.78 10.77 62.08C10.6033 62.1336 10.4425 62.2039 10.29 62.29C8.29 63.29 8.29 63.29 7.76 61.2C5.75 53.29 5.83 45.46 9 37.83C9.81626 35.6576 11.1699 33.7275 12.9344 32.22C14.6989 30.7126 16.8167 29.677 19.09 29.21Z" fill="#FBFBFC"/>
<path d="M24 59.57C21.8837 59.4876 19.7643 59.6048 17.67 59.92C17.02 60.05 16.82 59.7 16.59 59.25C15.7467 57.5469 15.2086 55.709 15 53.82C14.3 48.38 14.92 43.17 17.83 38.39C18.04 38.05 18.26 37.73 18.49 37.39C18.49 37.33 18.63 37.31 18.81 37.21C17.74 45.25 18.52 52.83 24 59.57Z" fill="#FAFBFB"/>
<path d="M84.18 71.66C83.4587 73.4363 82.4446 75.0791 81.18 76.52C80.39 75.66 79.41 74.64 79.47 73.75C79.53 72.75 81.17 73.13 82.01 72.6C82.7086 72.2323 83.434 71.9181 84.18 71.66Z" fill="#F2F5F7"/>
<path d="M52.42 92.87C51.3786 93.3352 50.2182 93.4646 49.1 93.24C50.24 92.58 51.34 92.85 52.42 92.87Z" fill="#80939D"/>
</g>
<defs>
<clipPath id="clip0_9_43">
<rect width="96.26" height="99.86" fill="white"/>
</clipPath>
</defs>
</svg>
